<mxfile host="app.diagrams.net" modified="2020-11-03T17:55:38.582Z" agent="5.0 (Windows)" etag="wi2DPQCKHX_lGsEwZY0q" version="13.8.6" type="github">
  <diagram id="MdBF8AWIPNB0VGwbYXWv" name="Page-1">
    <mxGraphModel dx="688" dy="543" grid="1" gridSize="10" guides="1" tooltips="1" connect="1" arrows="1" fold="1" page="1" pageScale="1" pageWidth="850" pageHeight="1100" math="0" shadow="0">
      <root>
        <mxCell id="0" />
        <mxCell id="1" parent="0" />
        <mxCell id="1DkLHITUJcnNgZ-i46YQ-23" style="edgeStyle=orthogonalEdgeStyle;rounded=0;orthogonalLoop=1;jettySize=auto;html=1;entryX=0;entryY=0.5;entryDx=0;entryDy=0;endArrow=none;endFill=0;" edge="1" parent="1" source="1DkLHITUJcnNgZ-i46YQ-1" target="1DkLHITUJcnNgZ-i46YQ-22">
          <mxGeometry relative="1" as="geometry" />
        </mxCell>
        <mxCell id="1DkLHITUJcnNgZ-i46YQ-61" style="edgeStyle=orthogonalEdgeStyle;rounded=0;orthogonalLoop=1;jettySize=auto;html=1;endArrow=none;endFill=0;" edge="1" parent="1" source="1DkLHITUJcnNgZ-i46YQ-1" target="1DkLHITUJcnNgZ-i46YQ-60">
          <mxGeometry relative="1" as="geometry" />
        </mxCell>
        <mxCell id="1DkLHITUJcnNgZ-i46YQ-1" value="Clientes" style="rounded=1;arcSize=10;whiteSpace=wrap;html=1;align=center;" vertex="1" parent="1">
          <mxGeometry x="120" y="160" width="100" height="40" as="geometry" />
        </mxCell>
        <mxCell id="1DkLHITUJcnNgZ-i46YQ-54" style="edgeStyle=orthogonalEdgeStyle;rounded=0;orthogonalLoop=1;jettySize=auto;html=1;entryX=1;entryY=0.5;entryDx=0;entryDy=0;endArrow=none;endFill=0;" edge="1" parent="1" source="1DkLHITUJcnNgZ-i46YQ-2" target="1DkLHITUJcnNgZ-i46YQ-51">
          <mxGeometry relative="1" as="geometry" />
        </mxCell>
        <mxCell id="1DkLHITUJcnNgZ-i46YQ-56" style="edgeStyle=orthogonalEdgeStyle;rounded=0;orthogonalLoop=1;jettySize=auto;html=1;entryX=0.5;entryY=1;entryDx=0;entryDy=0;endArrow=none;endFill=0;" edge="1" parent="1" source="1DkLHITUJcnNgZ-i46YQ-2" target="1DkLHITUJcnNgZ-i46YQ-55">
          <mxGeometry relative="1" as="geometry">
            <Array as="points">
              <mxPoint x="630" y="560" />
            </Array>
          </mxGeometry>
        </mxCell>
        <mxCell id="1DkLHITUJcnNgZ-i46YQ-2" value="&lt;div&gt;Articulos&lt;/div&gt;" style="rounded=1;arcSize=10;whiteSpace=wrap;html=1;align=center;" vertex="1" parent="1">
          <mxGeometry x="460" y="540" width="100" height="40" as="geometry" />
        </mxCell>
        <mxCell id="1DkLHITUJcnNgZ-i46YQ-45" style="edgeStyle=orthogonalEdgeStyle;rounded=0;orthogonalLoop=1;jettySize=auto;html=1;entryX=0.5;entryY=0;entryDx=0;entryDy=0;endArrow=none;endFill=0;" edge="1" parent="1" source="1DkLHITUJcnNgZ-i46YQ-3" target="1DkLHITUJcnNgZ-i46YQ-44">
          <mxGeometry relative="1" as="geometry" />
        </mxCell>
        <mxCell id="1DkLHITUJcnNgZ-i46YQ-3" value="Pedidos" style="rounded=1;arcSize=10;whiteSpace=wrap;html=1;align=center;" vertex="1" parent="1">
          <mxGeometry x="35" y="340" width="100" height="40" as="geometry" />
        </mxCell>
        <mxCell id="1DkLHITUJcnNgZ-i46YQ-5" value="NumCliente" style="shape=partialRectangle;fillColor=none;align=left;verticalAlign=middle;strokeColor=none;spacingLeft=34;rotatable=0;points=[[0,0.5],[1,0.5]];portConstraint=eastwest;dropTarget=0;" vertex="1" parent="1">
          <mxGeometry x="100" y="130" width="90" height="30" as="geometry" />
        </mxCell>
        <mxCell id="1DkLHITUJcnNgZ-i46YQ-6" value="" style="shape=partialRectangle;top=0;left=0;bottom=0;fillColor=none;stokeWidth=1;dashed=1;align=left;verticalAlign=middle;spacingLeft=4;spacingRight=4;overflow=hidden;rotatable=0;points=[];portConstraint=eastwest;part=1;" vertex="1" connectable="0" parent="1DkLHITUJcnNgZ-i46YQ-5">
          <mxGeometry width="30" height="30" as="geometry" />
        </mxCell>
        <mxCell id="1DkLHITUJcnNgZ-i46YQ-7" value="Nombre" style="shape=partialRectangle;fillColor=none;align=left;verticalAlign=middle;strokeColor=none;spacingLeft=34;rotatable=0;points=[[0,0.5],[1,0.5]];portConstraint=eastwest;dropTarget=0;" vertex="1" parent="1">
          <mxGeometry x="100" y="100" width="90" height="30" as="geometry" />
        </mxCell>
        <mxCell id="1DkLHITUJcnNgZ-i46YQ-8" value="" style="shape=partialRectangle;top=0;left=0;bottom=0;fillColor=none;stokeWidth=1;dashed=1;align=left;verticalAlign=middle;spacingLeft=4;spacingRight=4;overflow=hidden;rotatable=0;points=[];portConstraint=eastwest;part=1;" vertex="1" connectable="0" parent="1DkLHITUJcnNgZ-i46YQ-7">
          <mxGeometry width="30" height="30" as="geometry" />
        </mxCell>
        <mxCell id="1DkLHITUJcnNgZ-i46YQ-9" value="Direcciones" style="rounded=1;arcSize=10;whiteSpace=wrap;html=1;align=center;" vertex="1" parent="1">
          <mxGeometry x="440" y="160" width="100" height="40" as="geometry" />
        </mxCell>
        <mxCell id="1DkLHITUJcnNgZ-i46YQ-10" value="idDireccion" style="shape=partialRectangle;fillColor=none;align=left;verticalAlign=middle;strokeColor=none;spacingLeft=34;rotatable=0;points=[[0,0.5],[1,0.5]];portConstraint=eastwest;dropTarget=0;" vertex="1" parent="1">
          <mxGeometry x="430" y="130" width="90" height="30" as="geometry" />
        </mxCell>
        <mxCell id="1DkLHITUJcnNgZ-i46YQ-11" value="" style="shape=partialRectangle;top=0;left=0;bottom=0;fillColor=none;stokeWidth=1;dashed=1;align=left;verticalAlign=middle;spacingLeft=4;spacingRight=4;overflow=hidden;rotatable=0;points=[];portConstraint=eastwest;part=1;" vertex="1" connectable="0" parent="1DkLHITUJcnNgZ-i46YQ-10">
          <mxGeometry width="30" height="30" as="geometry" />
        </mxCell>
        <mxCell id="1DkLHITUJcnNgZ-i46YQ-12" value="Direccion" style="shape=partialRectangle;fillColor=none;align=left;verticalAlign=middle;strokeColor=none;spacingLeft=34;rotatable=0;points=[[0,0.5],[1,0.5]];portConstraint=eastwest;dropTarget=0;" vertex="1" parent="1">
          <mxGeometry x="430" y="100" width="90" height="30" as="geometry" />
        </mxCell>
        <mxCell id="1DkLHITUJcnNgZ-i46YQ-13" value="" style="shape=partialRectangle;top=0;left=0;bottom=0;fillColor=none;stokeWidth=1;dashed=1;align=left;verticalAlign=middle;spacingLeft=4;spacingRight=4;overflow=hidden;rotatable=0;points=[];portConstraint=eastwest;part=1;" vertex="1" connectable="0" parent="1DkLHITUJcnNgZ-i46YQ-12">
          <mxGeometry width="30" height="30" as="geometry" />
        </mxCell>
        <mxCell id="1DkLHITUJcnNgZ-i46YQ-14" value="NumCliente" style="shape=partialRectangle;fillColor=none;align=left;verticalAlign=middle;strokeColor=none;spacingLeft=34;rotatable=0;points=[[0,0.5],[1,0.5]];portConstraint=eastwest;dropTarget=0;" vertex="1" parent="1">
          <mxGeometry x="430" y="70" width="90" height="30" as="geometry" />
        </mxCell>
        <mxCell id="1DkLHITUJcnNgZ-i46YQ-15" value="" style="shape=partialRectangle;top=0;left=0;bottom=0;fillColor=none;stokeWidth=1;dashed=1;align=left;verticalAlign=middle;spacingLeft=4;spacingRight=4;overflow=hidden;rotatable=0;points=[];portConstraint=eastwest;part=1;" vertex="1" connectable="0" parent="1DkLHITUJcnNgZ-i46YQ-14">
          <mxGeometry width="30" height="30" as="geometry" />
        </mxCell>
        <mxCell id="1DkLHITUJcnNgZ-i46YQ-16" value="Saldo" style="shape=partialRectangle;fillColor=none;align=left;verticalAlign=middle;strokeColor=none;spacingLeft=34;rotatable=0;points=[[0,0.5],[1,0.5]];portConstraint=eastwest;dropTarget=0;" vertex="1" parent="1">
          <mxGeometry x="100" y="70" width="90" height="30" as="geometry" />
        </mxCell>
        <mxCell id="1DkLHITUJcnNgZ-i46YQ-17" value="" style="shape=partialRectangle;top=0;left=0;bottom=0;fillColor=none;stokeWidth=1;dashed=1;align=left;verticalAlign=middle;spacingLeft=4;spacingRight=4;overflow=hidden;rotatable=0;points=[];portConstraint=eastwest;part=1;" vertex="1" connectable="0" parent="1DkLHITUJcnNgZ-i46YQ-16">
          <mxGeometry width="30" height="30" as="geometry" />
        </mxCell>
        <mxCell id="1DkLHITUJcnNgZ-i46YQ-18" value="Limite_Credito" style="shape=partialRectangle;fillColor=none;align=left;verticalAlign=middle;strokeColor=none;spacingLeft=34;rotatable=0;points=[[0,0.5],[1,0.5]];portConstraint=eastwest;dropTarget=0;" vertex="1" parent="1">
          <mxGeometry x="100" y="40" width="90" height="30" as="geometry" />
        </mxCell>
        <mxCell id="1DkLHITUJcnNgZ-i46YQ-19" value="" style="shape=partialRectangle;top=0;left=0;bottom=0;fillColor=none;stokeWidth=1;dashed=1;align=left;verticalAlign=middle;spacingLeft=4;spacingRight=4;overflow=hidden;rotatable=0;points=[];portConstraint=eastwest;part=1;" vertex="1" connectable="0" parent="1DkLHITUJcnNgZ-i46YQ-18">
          <mxGeometry width="30" height="30" as="geometry" />
        </mxCell>
        <mxCell id="1DkLHITUJcnNgZ-i46YQ-20" value="Descuento" style="shape=partialRectangle;fillColor=none;align=left;verticalAlign=middle;strokeColor=none;spacingLeft=34;rotatable=0;points=[[0,0.5],[1,0.5]];portConstraint=eastwest;dropTarget=0;" vertex="1" parent="1">
          <mxGeometry x="100" y="10" width="90" height="30" as="geometry" />
        </mxCell>
        <mxCell id="1DkLHITUJcnNgZ-i46YQ-21" value="" style="shape=partialRectangle;top=0;left=0;bottom=0;fillColor=none;stokeWidth=1;dashed=1;align=left;verticalAlign=middle;spacingLeft=4;spacingRight=4;overflow=hidden;rotatable=0;points=[];portConstraint=eastwest;part=1;" vertex="1" connectable="0" parent="1DkLHITUJcnNgZ-i46YQ-20">
          <mxGeometry width="30" height="30" as="geometry" />
        </mxCell>
        <mxCell id="1DkLHITUJcnNgZ-i46YQ-24" style="edgeStyle=orthogonalEdgeStyle;rounded=0;orthogonalLoop=1;jettySize=auto;html=1;entryX=0;entryY=0.5;entryDx=0;entryDy=0;endArrow=none;endFill=0;" edge="1" parent="1" source="1DkLHITUJcnNgZ-i46YQ-22" target="1DkLHITUJcnNgZ-i46YQ-9">
          <mxGeometry relative="1" as="geometry" />
        </mxCell>
        <mxCell id="1DkLHITUJcnNgZ-i46YQ-22" value="Tiene" style="shape=rhombus;perimeter=rhombusPerimeter;whiteSpace=wrap;html=1;align=center;" vertex="1" parent="1">
          <mxGeometry x="300" y="160" width="60" height="40" as="geometry" />
        </mxCell>
        <mxCell id="1DkLHITUJcnNgZ-i46YQ-26" value="NumArticulo" style="shape=partialRectangle;fillColor=none;align=left;verticalAlign=middle;strokeColor=none;spacingLeft=34;rotatable=0;points=[[0,0.5],[1,0.5]];portConstraint=eastwest;dropTarget=0;" vertex="1" parent="1">
          <mxGeometry x="440" y="510" width="90" height="30" as="geometry" />
        </mxCell>
        <mxCell id="1DkLHITUJcnNgZ-i46YQ-27" value="" style="shape=partialRectangle;top=0;left=0;bottom=0;fillColor=none;stokeWidth=1;dashed=1;align=left;verticalAlign=middle;spacingLeft=4;spacingRight=4;overflow=hidden;rotatable=0;points=[];portConstraint=eastwest;part=1;" vertex="1" connectable="0" parent="1DkLHITUJcnNgZ-i46YQ-26">
          <mxGeometry width="30" height="30" as="geometry" />
        </mxCell>
        <mxCell id="1DkLHITUJcnNgZ-i46YQ-28" value="Existencias" style="shape=partialRectangle;fillColor=none;align=left;verticalAlign=middle;strokeColor=none;spacingLeft=34;rotatable=0;points=[[0,0.5],[1,0.5]];portConstraint=eastwest;dropTarget=0;" vertex="1" parent="1">
          <mxGeometry x="440" y="480" width="90" height="30" as="geometry" />
        </mxCell>
        <mxCell id="1DkLHITUJcnNgZ-i46YQ-29" value="" style="shape=partialRectangle;top=0;left=0;bottom=0;fillColor=none;stokeWidth=1;dashed=1;align=left;verticalAlign=middle;spacingLeft=4;spacingRight=4;overflow=hidden;rotatable=0;points=[];portConstraint=eastwest;part=1;" vertex="1" connectable="0" parent="1DkLHITUJcnNgZ-i46YQ-28">
          <mxGeometry width="30" height="30" as="geometry" />
        </mxCell>
        <mxCell id="1DkLHITUJcnNgZ-i46YQ-30" value="PrecioArticulo" style="shape=partialRectangle;fillColor=none;align=left;verticalAlign=middle;strokeColor=none;spacingLeft=34;rotatable=0;points=[[0,0.5],[1,0.5]];portConstraint=eastwest;dropTarget=0;" vertex="1" parent="1">
          <mxGeometry x="440" y="450" width="90" height="30" as="geometry" />
        </mxCell>
        <mxCell id="1DkLHITUJcnNgZ-i46YQ-31" value="" style="shape=partialRectangle;top=0;left=0;bottom=0;fillColor=none;stokeWidth=1;dashed=1;align=left;verticalAlign=middle;spacingLeft=4;spacingRight=4;overflow=hidden;rotatable=0;points=[];portConstraint=eastwest;part=1;" vertex="1" connectable="0" parent="1DkLHITUJcnNgZ-i46YQ-30">
          <mxGeometry width="30" height="30" as="geometry" />
        </mxCell>
        <mxCell id="1DkLHITUJcnNgZ-i46YQ-32" value="Descripcion" style="shape=partialRectangle;fillColor=none;align=left;verticalAlign=middle;strokeColor=none;spacingLeft=34;rotatable=0;points=[[0,0.5],[1,0.5]];portConstraint=eastwest;dropTarget=0;" vertex="1" parent="1">
          <mxGeometry x="440" y="420" width="90" height="30" as="geometry" />
        </mxCell>
        <mxCell id="1DkLHITUJcnNgZ-i46YQ-33" value="" style="shape=partialRectangle;top=0;left=0;bottom=0;fillColor=none;stokeWidth=1;dashed=1;align=left;verticalAlign=middle;spacingLeft=4;spacingRight=4;overflow=hidden;rotatable=0;points=[];portConstraint=eastwest;part=1;" vertex="1" connectable="0" parent="1DkLHITUJcnNgZ-i46YQ-32">
          <mxGeometry width="30" height="30" as="geometry" />
        </mxCell>
        <mxCell id="1DkLHITUJcnNgZ-i46YQ-57" style="edgeStyle=orthogonalEdgeStyle;rounded=0;orthogonalLoop=1;jettySize=auto;html=1;entryX=0.5;entryY=0;entryDx=0;entryDy=0;endArrow=none;endFill=0;" edge="1" parent="1" source="1DkLHITUJcnNgZ-i46YQ-34" target="1DkLHITUJcnNgZ-i46YQ-55">
          <mxGeometry relative="1" as="geometry" />
        </mxCell>
        <mxCell id="1DkLHITUJcnNgZ-i46YQ-34" value="Frabricas" style="rounded=1;arcSize=10;whiteSpace=wrap;html=1;align=center;" vertex="1" parent="1">
          <mxGeometry x="580" y="310" width="100" height="40" as="geometry" />
        </mxCell>
        <mxCell id="1DkLHITUJcnNgZ-i46YQ-35" value="NumFabrica" style="shape=partialRectangle;fillColor=none;align=left;verticalAlign=middle;strokeColor=none;spacingLeft=34;rotatable=0;points=[[0,0.5],[1,0.5]];portConstraint=eastwest;dropTarget=0;" vertex="1" parent="1">
          <mxGeometry x="635" y="280" width="90" height="30" as="geometry" />
        </mxCell>
        <mxCell id="1DkLHITUJcnNgZ-i46YQ-36" value="" style="shape=partialRectangle;top=0;left=0;bottom=0;fillColor=none;stokeWidth=1;dashed=1;align=left;verticalAlign=middle;spacingLeft=4;spacingRight=4;overflow=hidden;rotatable=0;points=[];portConstraint=eastwest;part=1;" vertex="1" connectable="0" parent="1DkLHITUJcnNgZ-i46YQ-35">
          <mxGeometry width="30" height="30" as="geometry" />
        </mxCell>
        <mxCell id="1DkLHITUJcnNgZ-i46YQ-37" value="Denominacion" style="shape=partialRectangle;fillColor=none;align=left;verticalAlign=middle;strokeColor=none;spacingLeft=34;rotatable=0;points=[[0,0.5],[1,0.5]];portConstraint=eastwest;dropTarget=0;" vertex="1" parent="1">
          <mxGeometry x="635" y="250" width="90" height="30" as="geometry" />
        </mxCell>
        <mxCell id="1DkLHITUJcnNgZ-i46YQ-38" value="" style="shape=partialRectangle;top=0;left=0;bottom=0;fillColor=none;stokeWidth=1;dashed=1;align=left;verticalAlign=middle;spacingLeft=4;spacingRight=4;overflow=hidden;rotatable=0;points=[];portConstraint=eastwest;part=1;" vertex="1" connectable="0" parent="1DkLHITUJcnNgZ-i46YQ-37">
          <mxGeometry width="30" height="30" as="geometry" />
        </mxCell>
        <mxCell id="1DkLHITUJcnNgZ-i46YQ-41" value="telefono" style="shape=partialRectangle;fillColor=none;align=left;verticalAlign=middle;strokeColor=none;spacingLeft=34;rotatable=0;points=[[0,0.5],[1,0.5]];portConstraint=eastwest;dropTarget=0;" vertex="1" parent="1">
          <mxGeometry x="635" y="220" width="90" height="30" as="geometry" />
        </mxCell>
        <mxCell id="1DkLHITUJcnNgZ-i46YQ-42" value="" style="shape=partialRectangle;top=0;left=0;bottom=0;fillColor=none;stokeWidth=1;dashed=1;align=left;verticalAlign=middle;spacingLeft=4;spacingRight=4;overflow=hidden;rotatable=0;points=[];portConstraint=eastwest;part=1;" vertex="1" connectable="0" parent="1DkLHITUJcnNgZ-i46YQ-41">
          <mxGeometry width="30" height="30" as="geometry" />
        </mxCell>
        <mxCell id="1DkLHITUJcnNgZ-i46YQ-79" style="edgeStyle=orthogonalEdgeStyle;rounded=0;orthogonalLoop=1;jettySize=auto;html=1;entryX=0.5;entryY=0;entryDx=0;entryDy=0;endArrow=none;endFill=0;" edge="1" parent="1" source="1DkLHITUJcnNgZ-i46YQ-44" target="1DkLHITUJcnNgZ-i46YQ-77">
          <mxGeometry relative="1" as="geometry" />
        </mxCell>
        <mxCell id="1DkLHITUJcnNgZ-i46YQ-44" value="Tiene" style="shape=rhombus;perimeter=rhombusPerimeter;whiteSpace=wrap;html=1;align=center;" vertex="1" parent="1">
          <mxGeometry x="55" y="440" width="60" height="40" as="geometry" />
        </mxCell>
        <mxCell id="1DkLHITUJcnNgZ-i46YQ-47" value="numArtirculo" style="shape=partialRectangle;fillColor=none;align=left;verticalAlign=middle;strokeColor=none;spacingLeft=34;rotatable=0;points=[[0,0.5],[1,0.5]];portConstraint=eastwest;dropTarget=0;" vertex="1" parent="1">
          <mxGeometry x="120" y="510" width="90" height="30" as="geometry" />
        </mxCell>
        <mxCell id="1DkLHITUJcnNgZ-i46YQ-48" value="" style="shape=partialRectangle;top=0;left=0;bottom=0;fillColor=none;stokeWidth=1;dashed=1;align=left;verticalAlign=middle;spacingLeft=4;spacingRight=4;overflow=hidden;rotatable=0;points=[];portConstraint=eastwest;part=1;" vertex="1" connectable="0" parent="1DkLHITUJcnNgZ-i46YQ-47">
          <mxGeometry width="30" height="30" as="geometry" />
        </mxCell>
        <mxCell id="1DkLHITUJcnNgZ-i46YQ-49" value="Cantidad" style="shape=partialRectangle;fillColor=none;align=left;verticalAlign=middle;strokeColor=none;spacingLeft=34;rotatable=0;points=[[0,0.5],[1,0.5]];portConstraint=eastwest;dropTarget=0;" vertex="1" parent="1">
          <mxGeometry x="120" y="480" width="90" height="30" as="geometry" />
        </mxCell>
        <mxCell id="1DkLHITUJcnNgZ-i46YQ-50" value="" style="shape=partialRectangle;top=0;left=0;bottom=0;fillColor=none;stokeWidth=1;dashed=1;align=left;verticalAlign=middle;spacingLeft=4;spacingRight=4;overflow=hidden;rotatable=0;points=[];portConstraint=eastwest;part=1;" vertex="1" connectable="0" parent="1DkLHITUJcnNgZ-i46YQ-49">
          <mxGeometry width="30" height="30" as="geometry" />
        </mxCell>
        <mxCell id="1DkLHITUJcnNgZ-i46YQ-51" value="Tiene" style="shape=rhombus;perimeter=rhombusPerimeter;whiteSpace=wrap;html=1;align=center;" vertex="1" parent="1">
          <mxGeometry x="320" y="540" width="60" height="40" as="geometry" />
        </mxCell>
        <mxCell id="1DkLHITUJcnNgZ-i46YQ-55" value="fabricar" style="shape=rhombus;perimeter=rhombusPerimeter;whiteSpace=wrap;html=1;align=center;" vertex="1" parent="1">
          <mxGeometry x="600" y="470" width="60" height="40" as="geometry" />
        </mxCell>
        <mxCell id="1DkLHITUJcnNgZ-i46YQ-58" value="EsPrincipaFabricante" style="shape=partialRectangle;fillColor=none;align=left;verticalAlign=middle;strokeColor=none;spacingLeft=34;rotatable=0;points=[[0,0.5],[1,0.5]];portConstraint=eastwest;dropTarget=0;" vertex="1" parent="1">
          <mxGeometry x="620" y="450" width="90" height="30" as="geometry" />
        </mxCell>
        <mxCell id="1DkLHITUJcnNgZ-i46YQ-59" value="" style="shape=partialRectangle;top=0;left=0;bottom=0;fillColor=none;stokeWidth=1;dashed=1;align=left;verticalAlign=middle;spacingLeft=4;spacingRight=4;overflow=hidden;rotatable=0;points=[];portConstraint=eastwest;part=1;" vertex="1" connectable="0" parent="1DkLHITUJcnNgZ-i46YQ-58">
          <mxGeometry width="30" height="30" as="geometry" />
        </mxCell>
        <mxCell id="1DkLHITUJcnNgZ-i46YQ-81" style="edgeStyle=orthogonalEdgeStyle;rounded=0;orthogonalLoop=1;jettySize=auto;html=1;entryX=0.83;entryY=-0.025;entryDx=0;entryDy=0;entryPerimeter=0;endArrow=none;endFill=0;" edge="1" parent="1" source="1DkLHITUJcnNgZ-i46YQ-60" target="1DkLHITUJcnNgZ-i46YQ-3">
          <mxGeometry relative="1" as="geometry" />
        </mxCell>
        <mxCell id="1DkLHITUJcnNgZ-i46YQ-60" value="Efectua" style="shape=rhombus;perimeter=rhombusPerimeter;whiteSpace=wrap;html=1;align=center;" vertex="1" parent="1">
          <mxGeometry x="140" y="240" width="60" height="40" as="geometry" />
        </mxCell>
        <mxCell id="1DkLHITUJcnNgZ-i46YQ-65" style="edgeStyle=orthogonalEdgeStyle;rounded=0;orthogonalLoop=1;jettySize=auto;html=1;entryX=0.5;entryY=1;entryDx=0;entryDy=0;endArrow=none;endFill=0;exitX=1;exitY=0.5;exitDx=0;exitDy=0;" edge="1" parent="1" source="1DkLHITUJcnNgZ-i46YQ-63" target="1DkLHITUJcnNgZ-i46YQ-9">
          <mxGeometry relative="1" as="geometry" />
        </mxCell>
        <mxCell id="1DkLHITUJcnNgZ-i46YQ-66" style="edgeStyle=orthogonalEdgeStyle;rounded=0;orthogonalLoop=1;jettySize=auto;html=1;entryX=1;entryY=0.5;entryDx=0;entryDy=0;endArrow=none;endFill=0;" edge="1" parent="1" source="1DkLHITUJcnNgZ-i46YQ-63" target="1DkLHITUJcnNgZ-i46YQ-3">
          <mxGeometry relative="1" as="geometry" />
        </mxCell>
        <mxCell id="1DkLHITUJcnNgZ-i46YQ-63" value="enviar" style="shape=rhombus;perimeter=rhombusPerimeter;whiteSpace=wrap;html=1;align=center;" vertex="1" parent="1">
          <mxGeometry x="290" y="340" width="60" height="40" as="geometry" />
        </mxCell>
        <mxCell id="1DkLHITUJcnNgZ-i46YQ-70" value="idDireccion" style="shape=partialRectangle;fillColor=none;align=left;verticalAlign=middle;strokeColor=none;spacingLeft=34;rotatable=0;points=[[0,0.5],[1,0.5]];portConstraint=eastwest;dropTarget=0;" vertex="1" parent="1">
          <mxGeometry x="10" y="285" width="90" height="30" as="geometry" />
        </mxCell>
        <mxCell id="1DkLHITUJcnNgZ-i46YQ-71" value="" style="shape=partialRectangle;top=0;left=0;bottom=0;fillColor=none;stokeWidth=1;dashed=1;align=left;verticalAlign=middle;spacingLeft=4;spacingRight=4;overflow=hidden;rotatable=0;points=[];portConstraint=eastwest;part=1;" vertex="1" connectable="0" parent="1DkLHITUJcnNgZ-i46YQ-70">
          <mxGeometry width="30" height="30" as="geometry" />
        </mxCell>
        <mxCell id="1DkLHITUJcnNgZ-i46YQ-73" value="NumCliente" style="shape=partialRectangle;fillColor=none;align=left;verticalAlign=middle;strokeColor=none;spacingLeft=34;rotatable=0;points=[[0,0.5],[1,0.5]];portConstraint=eastwest;dropTarget=0;" vertex="1" parent="1">
          <mxGeometry x="10" y="310" width="90" height="30" as="geometry" />
        </mxCell>
        <mxCell id="1DkLHITUJcnNgZ-i46YQ-74" value="" style="shape=partialRectangle;top=0;left=0;bottom=0;fillColor=none;stokeWidth=1;dashed=1;align=left;verticalAlign=middle;spacingLeft=4;spacingRight=4;overflow=hidden;rotatable=0;points=[];portConstraint=eastwest;part=1;" vertex="1" connectable="0" parent="1DkLHITUJcnNgZ-i46YQ-73">
          <mxGeometry width="30" height="30" as="geometry" />
        </mxCell>
        <mxCell id="1DkLHITUJcnNgZ-i46YQ-75" value="fecha" style="shape=partialRectangle;fillColor=none;align=left;verticalAlign=middle;strokeColor=none;spacingLeft=34;rotatable=0;points=[[0,0.5],[1,0.5]];portConstraint=eastwest;dropTarget=0;" vertex="1" parent="1">
          <mxGeometry x="10" y="255" width="90" height="30" as="geometry" />
        </mxCell>
        <mxCell id="1DkLHITUJcnNgZ-i46YQ-76" value="" style="shape=partialRectangle;top=0;left=0;bottom=0;fillColor=none;stokeWidth=1;dashed=1;align=left;verticalAlign=middle;spacingLeft=4;spacingRight=4;overflow=hidden;rotatable=0;points=[];portConstraint=eastwest;part=1;" vertex="1" connectable="0" parent="1DkLHITUJcnNgZ-i46YQ-75">
          <mxGeometry width="30" height="30" as="geometry" />
        </mxCell>
        <mxCell id="1DkLHITUJcnNgZ-i46YQ-80" style="edgeStyle=orthogonalEdgeStyle;rounded=0;orthogonalLoop=1;jettySize=auto;html=1;entryX=0;entryY=0.5;entryDx=0;entryDy=0;endArrow=none;endFill=0;" edge="1" parent="1" source="1DkLHITUJcnNgZ-i46YQ-77" target="1DkLHITUJcnNgZ-i46YQ-51">
          <mxGeometry relative="1" as="geometry" />
        </mxCell>
        <mxCell id="1DkLHITUJcnNgZ-i46YQ-77" value="lineaDetalle" style="shape=ext;margin=3;double=1;whiteSpace=wrap;html=1;align=center;" vertex="1" parent="1">
          <mxGeometry x="60" y="540" width="100" height="40" as="geometry" />
        </mxCell>
        <mxCell id="1DkLHITUJcnNgZ-i46YQ-82" value="PrecioArticulo" style="shape=partialRectangle;fillColor=none;align=left;verticalAlign=middle;strokeColor=none;spacingLeft=34;rotatable=0;points=[[0,0.5],[1,0.5]];portConstraint=eastwest;dropTarget=0;" vertex="1" parent="1">
          <mxGeometry x="620" y="420" width="90" height="30" as="geometry" />
        </mxCell>
        <mxCell id="1DkLHITUJcnNgZ-i46YQ-83" value="" style="shape=partialRectangle;top=0;left=0;bottom=0;fillColor=none;stokeWidth=1;dashed=1;align=left;verticalAlign=middle;spacingLeft=4;spacingRight=4;overflow=hidden;rotatable=0;points=[];portConstraint=eastwest;part=1;" vertex="1" connectable="0" parent="1DkLHITUJcnNgZ-i46YQ-82">
          <mxGeometry width="30" height="30" as="geometry" />
        </mxCell>
        <mxCell id="1DkLHITUJcnNgZ-i46YQ-84" value="1:N" style="text;html=1;align=center;verticalAlign=middle;resizable=0;points=[];autosize=1;" vertex="1" parent="1">
          <mxGeometry x="400" y="160" width="30" height="20" as="geometry" />
        </mxCell>
        <mxCell id="1DkLHITUJcnNgZ-i46YQ-85" value="1:N" style="text;html=1;align=center;verticalAlign=middle;resizable=0;points=[];autosize=1;" vertex="1" parent="1">
          <mxGeometry x="225" y="160" width="30" height="20" as="geometry" />
        </mxCell>
        <mxCell id="1DkLHITUJcnNgZ-i46YQ-86" value="N:M" style="text;html=1;align=center;verticalAlign=middle;resizable=0;points=[];autosize=1;" vertex="1" parent="1">
          <mxGeometry x="310" y="140" width="40" height="20" as="geometry" />
        </mxCell>
      </root>
    </mxGraphModel>
  </diagram>
</mxfile>
